<?xml version="1.0" standalone="no"?>
<!DOCTYPE svg PUBLIC "-//W3C//DTD SVG 20010904//EN"
 "http://www.w3.org/TR/2001/REC-SVG-20010904/DTD/svg10.dtd">
<svg version="1.0" xmlns="http://www.w3.org/2000/svg"
 width="484.000000pt" height="484.000000pt" viewBox="0 0 484.000000 484.000000"
 preserveAspectRatio="xMidYMid meet">
<metadata>
Created by potrace 1.11, written by Peter Selinger 2001-2013
</metadata>
<g transform="translate(0.000000,484.000000) scale(0.100000,-0.100000)"
fill="#000000" stroke="none">
<path d="M120 4180 l0 -639 248 146 c136 80 379 222 539 316 161 95 293 174
293 177 0 3 -132 82 -293 177 -160 94 -403 236 -539 316 l-248 146 0 -639z"/>
<path d="M1620 4009 c-127 -22 -250 -54 -330 -84 -559 -213 -940 -674 -1036
-1253 -21 -127 -21 -376 0 -502 102 -616 530 -1102 1127 -1284 553 -167 1167
-14 1580 395 433 430 586 1068 394 1646 -179 538 -633 941 -1200 1063 -114 25
-437 36 -535 19z m478 -283 c188 -41 381 -128 530 -241 272 -205 453 -494 518
-831 23 -120 23 -348 0 -468 -51 -261 -165 -488 -341 -674 -453 -480 -1180
-560 -1725 -189 -101 69 -283 253 -348 352 -152 230 -223 467 -223 745 0 282
75 527 234 759 62 91 215 247 312 319 162 120 403 217 603 242 97 13 355 4
440 -14z"/>
<path d="M1686 3480 c-429 -68 -767 -369 -883 -787 -26 -90 -28 -112 -27 -273
0 -157 3 -185 27 -274 86 -320 336 -602 637 -719 136 -53 234 -71 390 -71 151
0 211 9 340 51 359 117 634 425 711 798 23 113 25 301 3 415 -77 407 -385 732
-793 836 -108 28 -304 40 -405 24z m214 -742 l0 -353 283 -167 c155 -92 290
-173 299 -180 16 -12 14 -19 -27 -83 -25 -38 -46 -74 -48 -78 -1 -5 -160 86
-352 201 l-350 210 -3 388 c-1 214 0 395 3 401 3 9 33 13 100 13 l95 0 0 -352z"/>
<path d="M3630 2420 l0 -641 23 12 c12 7 195 114 407 239 212 124 447 262 522
306 76 43 138 81 138 84 0 3 -62 41 -138 85 -75 43 -310 181 -522 306 -212
124 -395 231 -407 238 l-23 12 0 -641z"/>
<path d="M120 660 c0 -347 2 -630 5 -630 11 0 1065 623 1065 630 0 7 -1054
630 -1065 630 -3 0 -5 -283 -5 -630z"/>
</g>
</svg>
